<mxfile host="Electron" agent="Mozilla/5.0 (Windows NT 10.0; Win64; x64) AppleWebKit/537.36 (KHTML, like Gecko) draw.io/28.1.2 Chrome/138.0.7204.243 Electron/37.4.0 Safari/537.36" version="28.1.2">
  <diagram name="Page-1" id="bxkl7LfHBZebu8ftHP5B">
    <mxGraphModel dx="1281" dy="626" grid="1" gridSize="10" guides="1" tooltips="1" connect="1" arrows="1" fold="1" page="1" pageScale="1" pageWidth="850" pageHeight="1100" math="0" shadow="0">
      <root>
        <mxCell id="0" />
        <mxCell id="1" parent="0" />
        <mxCell id="XVAqmGDR4TXaDETgzdf3-1" value="StudentID" style="rounded=0;whiteSpace=wrap;html=1;" vertex="1" parent="1">
          <mxGeometry x="140" y="85" width="120" height="60" as="geometry" />
        </mxCell>
        <mxCell id="XVAqmGDR4TXaDETgzdf3-2" value="0NF" style="text;html=1;align=center;verticalAlign=middle;whiteSpace=wrap;rounded=0;" vertex="1" parent="1">
          <mxGeometry x="50" y="30" width="60" height="30" as="geometry" />
        </mxCell>
        <mxCell id="XVAqmGDR4TXaDETgzdf3-3" value="Student" style="text;html=1;align=center;verticalAlign=middle;whiteSpace=wrap;rounded=0;" vertex="1" parent="1">
          <mxGeometry x="50" y="100" width="60" height="30" as="geometry" />
        </mxCell>
        <mxCell id="XVAqmGDR4TXaDETgzdf3-4" value="StudentNaam" style="rounded=0;whiteSpace=wrap;html=1;" vertex="1" parent="1">
          <mxGeometry x="260" y="85" width="120" height="60" as="geometry" />
        </mxCell>
        <mxCell id="XVAqmGDR4TXaDETgzdf3-5" value="Vak" style="rounded=0;whiteSpace=wrap;html=1;" vertex="1" parent="1">
          <mxGeometry x="380" y="85" width="120" height="60" as="geometry" />
        </mxCell>
        <mxCell id="XVAqmGDR4TXaDETgzdf3-6" value="Docent" style="rounded=0;whiteSpace=wrap;html=1;" vertex="1" parent="1">
          <mxGeometry x="500" y="85" width="120" height="60" as="geometry" />
        </mxCell>
        <mxCell id="XVAqmGDR4TXaDETgzdf3-7" value="DocentEmail" style="rounded=0;whiteSpace=wrap;html=1;" vertex="1" parent="1">
          <mxGeometry x="620" y="85" width="120" height="60" as="geometry" />
        </mxCell>
        <mxCell id="XVAqmGDR4TXaDETgzdf3-8" value="Punten" style="rounded=0;whiteSpace=wrap;html=1;" vertex="1" parent="1">
          <mxGeometry x="740" y="85" width="120" height="60" as="geometry" />
        </mxCell>
        <mxCell id="XVAqmGDR4TXaDETgzdf3-9" value="Semester" style="rounded=0;whiteSpace=wrap;html=1;" vertex="1" parent="1">
          <mxGeometry x="860" y="85" width="120" height="60" as="geometry" />
        </mxCell>
        <mxCell id="XVAqmGDR4TXaDETgzdf3-11" value="" style="endArrow=classic;startArrow=classic;html=1;rounded=0;" edge="1" parent="1">
          <mxGeometry width="50" height="50" relative="1" as="geometry">
            <mxPoint x="140" y="80" as="sourcePoint" />
            <mxPoint x="260" y="80" as="targetPoint" />
          </mxGeometry>
        </mxCell>
        <mxCell id="XVAqmGDR4TXaDETgzdf3-12" value="StudentID" style="rounded=0;whiteSpace=wrap;html=1;" vertex="1" parent="1">
          <mxGeometry x="140" y="245" width="120" height="60" as="geometry" />
        </mxCell>
        <mxCell id="XVAqmGDR4TXaDETgzdf3-13" value="1NF" style="text;html=1;align=center;verticalAlign=middle;whiteSpace=wrap;rounded=0;" vertex="1" parent="1">
          <mxGeometry x="50" y="190" width="60" height="30" as="geometry" />
        </mxCell>
        <mxCell id="XVAqmGDR4TXaDETgzdf3-14" value="Student" style="text;html=1;align=center;verticalAlign=middle;whiteSpace=wrap;rounded=0;" vertex="1" parent="1">
          <mxGeometry x="50" y="260" width="60" height="30" as="geometry" />
        </mxCell>
        <mxCell id="XVAqmGDR4TXaDETgzdf3-15" value="StudentNaam" style="rounded=0;whiteSpace=wrap;html=1;" vertex="1" parent="1">
          <mxGeometry x="260" y="245" width="120" height="60" as="geometry" />
        </mxCell>
        <mxCell id="XVAqmGDR4TXaDETgzdf3-16" value="Vak" style="rounded=0;whiteSpace=wrap;html=1;" vertex="1" parent="1">
          <mxGeometry x="260" y="353" width="120" height="60" as="geometry" />
        </mxCell>
        <mxCell id="XVAqmGDR4TXaDETgzdf3-17" value="Docent" style="rounded=0;whiteSpace=wrap;html=1;" vertex="1" parent="1">
          <mxGeometry x="380" y="353" width="120" height="60" as="geometry" />
        </mxCell>
        <mxCell id="XVAqmGDR4TXaDETgzdf3-18" value="DocentEmail" style="rounded=0;whiteSpace=wrap;html=1;" vertex="1" parent="1">
          <mxGeometry x="500" y="353" width="120" height="60" as="geometry" />
        </mxCell>
        <mxCell id="XVAqmGDR4TXaDETgzdf3-19" value="Punten" style="rounded=0;whiteSpace=wrap;html=1;" vertex="1" parent="1">
          <mxGeometry x="620" y="353" width="120" height="60" as="geometry" />
        </mxCell>
        <mxCell id="XVAqmGDR4TXaDETgzdf3-20" value="Semester" style="rounded=0;whiteSpace=wrap;html=1;" vertex="1" parent="1">
          <mxGeometry x="740" y="353" width="120" height="60" as="geometry" />
        </mxCell>
        <mxCell id="XVAqmGDR4TXaDETgzdf3-21" value="" style="endArrow=classic;startArrow=classic;html=1;rounded=0;" edge="1" parent="1">
          <mxGeometry width="50" height="50" relative="1" as="geometry">
            <mxPoint x="140" y="240" as="sourcePoint" />
            <mxPoint x="260" y="240" as="targetPoint" />
          </mxGeometry>
        </mxCell>
        <mxCell id="XVAqmGDR4TXaDETgzdf3-22" value="Vak" style="text;html=1;align=center;verticalAlign=middle;resizable=0;points=[];autosize=1;strokeColor=none;fillColor=none;" vertex="1" parent="1">
          <mxGeometry x="60" y="368" width="40" height="30" as="geometry" />
        </mxCell>
        <mxCell id="XVAqmGDR4TXaDETgzdf3-23" value="StudentID" style="rounded=0;whiteSpace=wrap;html=1;" vertex="1" parent="1">
          <mxGeometry x="140" y="353" width="120" height="60" as="geometry" />
        </mxCell>
        <mxCell id="XVAqmGDR4TXaDETgzdf3-24" value="" style="endArrow=classic;startArrow=classic;html=1;rounded=0;" edge="1" parent="1">
          <mxGeometry width="50" height="50" relative="1" as="geometry">
            <mxPoint x="140" y="340" as="sourcePoint" />
            <mxPoint x="380" y="340" as="targetPoint" />
          </mxGeometry>
        </mxCell>
        <mxCell id="XVAqmGDR4TXaDETgzdf3-25" value="" style="endArrow=classic;html=1;rounded=0;exitX=0.5;exitY=0;exitDx=0;exitDy=0;entryX=0.5;entryY=1;entryDx=0;entryDy=0;" edge="1" parent="1" source="XVAqmGDR4TXaDETgzdf3-23" target="XVAqmGDR4TXaDETgzdf3-12">
          <mxGeometry width="50" height="50" relative="1" as="geometry">
            <mxPoint x="490" y="310" as="sourcePoint" />
            <mxPoint x="540" y="260" as="targetPoint" />
          </mxGeometry>
        </mxCell>
        <mxCell id="XVAqmGDR4TXaDETgzdf3-26" value="StudentID" style="rounded=0;whiteSpace=wrap;html=1;" vertex="1" parent="1">
          <mxGeometry x="150" y="505" width="120" height="60" as="geometry" />
        </mxCell>
        <mxCell id="XVAqmGDR4TXaDETgzdf3-27" value="StudentNaam" style="rounded=0;whiteSpace=wrap;html=1;" vertex="1" parent="1">
          <mxGeometry x="270" y="505" width="120" height="60" as="geometry" />
        </mxCell>
        <mxCell id="XVAqmGDR4TXaDETgzdf3-28" value="Vak" style="rounded=0;whiteSpace=wrap;html=1;" vertex="1" parent="1">
          <mxGeometry x="270" y="613" width="120" height="60" as="geometry" />
        </mxCell>
        <mxCell id="XVAqmGDR4TXaDETgzdf3-29" value="Docent" style="rounded=0;whiteSpace=wrap;html=1;" vertex="1" parent="1">
          <mxGeometry x="390" y="740" width="120" height="60" as="geometry" />
        </mxCell>
        <mxCell id="XVAqmGDR4TXaDETgzdf3-30" value="DocentEmail" style="rounded=0;whiteSpace=wrap;html=1;" vertex="1" parent="1">
          <mxGeometry x="510" y="740" width="120" height="60" as="geometry" />
        </mxCell>
        <mxCell id="XVAqmGDR4TXaDETgzdf3-31" value="Punten" style="rounded=0;whiteSpace=wrap;html=1;" vertex="1" parent="1">
          <mxGeometry x="630" y="740" width="120" height="60" as="geometry" />
        </mxCell>
        <mxCell id="XVAqmGDR4TXaDETgzdf3-32" value="Semester" style="rounded=0;whiteSpace=wrap;html=1;" vertex="1" parent="1">
          <mxGeometry x="750" y="740" width="120" height="60" as="geometry" />
        </mxCell>
        <mxCell id="XVAqmGDR4TXaDETgzdf3-33" value="" style="endArrow=classic;startArrow=classic;html=1;rounded=0;" edge="1" parent="1">
          <mxGeometry width="50" height="50" relative="1" as="geometry">
            <mxPoint x="150" y="500" as="sourcePoint" />
            <mxPoint x="270" y="500" as="targetPoint" />
          </mxGeometry>
        </mxCell>
        <mxCell id="XVAqmGDR4TXaDETgzdf3-34" value="Vak" style="text;html=1;align=center;verticalAlign=middle;resizable=0;points=[];autosize=1;strokeColor=none;fillColor=none;" vertex="1" parent="1">
          <mxGeometry x="70" y="755" width="40" height="30" as="geometry" />
        </mxCell>
        <mxCell id="XVAqmGDR4TXaDETgzdf3-35" value="StudentID" style="rounded=0;whiteSpace=wrap;html=1;" vertex="1" parent="1">
          <mxGeometry x="150" y="613" width="120" height="60" as="geometry" />
        </mxCell>
        <mxCell id="XVAqmGDR4TXaDETgzdf3-36" value="" style="endArrow=classic;startArrow=classic;html=1;rounded=0;" edge="1" parent="1">
          <mxGeometry width="50" height="50" relative="1" as="geometry">
            <mxPoint x="150" y="600" as="sourcePoint" />
            <mxPoint x="390" y="600" as="targetPoint" />
          </mxGeometry>
        </mxCell>
        <mxCell id="XVAqmGDR4TXaDETgzdf3-37" value="" style="endArrow=classic;html=1;rounded=0;exitX=0.5;exitY=0;exitDx=0;exitDy=0;entryX=0.5;entryY=1;entryDx=0;entryDy=0;" edge="1" parent="1" source="XVAqmGDR4TXaDETgzdf3-35" target="XVAqmGDR4TXaDETgzdf3-26">
          <mxGeometry width="50" height="50" relative="1" as="geometry">
            <mxPoint x="500" y="570" as="sourcePoint" />
            <mxPoint x="550" y="520" as="targetPoint" />
          </mxGeometry>
        </mxCell>
        <mxCell id="XVAqmGDR4TXaDETgzdf3-38" value="Vak" style="rounded=0;whiteSpace=wrap;html=1;" vertex="1" parent="1">
          <mxGeometry x="270" y="740" width="120" height="60" as="geometry" />
        </mxCell>
        <mxCell id="XVAqmGDR4TXaDETgzdf3-39" value="" style="endArrow=classic;startArrow=classic;html=1;rounded=0;" edge="1" parent="1">
          <mxGeometry width="50" height="50" relative="1" as="geometry">
            <mxPoint x="270" y="730" as="sourcePoint" />
            <mxPoint x="390" y="730" as="targetPoint" />
          </mxGeometry>
        </mxCell>
        <mxCell id="XVAqmGDR4TXaDETgzdf3-40" value="2NF" style="text;html=1;align=center;verticalAlign=middle;whiteSpace=wrap;rounded=0;" vertex="1" parent="1">
          <mxGeometry x="50" y="470" width="60" height="30" as="geometry" />
        </mxCell>
        <mxCell id="XVAqmGDR4TXaDETgzdf3-41" value="Student" style="text;html=1;align=center;verticalAlign=middle;resizable=0;points=[];autosize=1;strokeColor=none;fillColor=none;" vertex="1" parent="1">
          <mxGeometry x="60" y="520" width="60" height="30" as="geometry" />
        </mxCell>
        <mxCell id="XVAqmGDR4TXaDETgzdf3-42" value="VakInschrijving" style="text;html=1;align=center;verticalAlign=middle;resizable=0;points=[];autosize=1;strokeColor=none;fillColor=none;" vertex="1" parent="1">
          <mxGeometry x="40" y="628" width="100" height="30" as="geometry" />
        </mxCell>
        <mxCell id="XVAqmGDR4TXaDETgzdf3-43" value="" style="endArrow=classic;html=1;rounded=0;exitX=0.5;exitY=1;exitDx=0;exitDy=0;entryX=0.5;entryY=0;entryDx=0;entryDy=0;" edge="1" parent="1" source="XVAqmGDR4TXaDETgzdf3-28" target="XVAqmGDR4TXaDETgzdf3-38">
          <mxGeometry width="50" height="50" relative="1" as="geometry">
            <mxPoint x="510" y="680" as="sourcePoint" />
            <mxPoint x="560" y="630" as="targetPoint" />
          </mxGeometry>
        </mxCell>
        <mxCell id="XVAqmGDR4TXaDETgzdf3-44" value="StudentID" style="rounded=0;whiteSpace=wrap;html=1;" vertex="1" parent="1">
          <mxGeometry x="150" y="905" width="120" height="60" as="geometry" />
        </mxCell>
        <mxCell id="XVAqmGDR4TXaDETgzdf3-45" value="StudentNaam" style="rounded=0;whiteSpace=wrap;html=1;" vertex="1" parent="1">
          <mxGeometry x="270" y="905" width="120" height="60" as="geometry" />
        </mxCell>
        <mxCell id="XVAqmGDR4TXaDETgzdf3-46" value="Vak" style="rounded=0;whiteSpace=wrap;html=1;" vertex="1" parent="1">
          <mxGeometry x="270" y="1013" width="120" height="60" as="geometry" />
        </mxCell>
        <mxCell id="XVAqmGDR4TXaDETgzdf3-47" value="Docent" style="rounded=0;whiteSpace=wrap;html=1;" vertex="1" parent="1">
          <mxGeometry x="390" y="1140" width="120" height="60" as="geometry" />
        </mxCell>
        <mxCell id="XVAqmGDR4TXaDETgzdf3-48" value="DocentEmail" style="rounded=0;whiteSpace=wrap;html=1;" vertex="1" parent="1">
          <mxGeometry x="510" y="1270" width="120" height="60" as="geometry" />
        </mxCell>
        <mxCell id="XVAqmGDR4TXaDETgzdf3-49" value="Punten" style="rounded=0;whiteSpace=wrap;html=1;" vertex="1" parent="1">
          <mxGeometry x="510" y="1140" width="120" height="60" as="geometry" />
        </mxCell>
        <mxCell id="XVAqmGDR4TXaDETgzdf3-50" value="Semester" style="rounded=0;whiteSpace=wrap;html=1;" vertex="1" parent="1">
          <mxGeometry x="630" y="1140" width="120" height="60" as="geometry" />
        </mxCell>
        <mxCell id="XVAqmGDR4TXaDETgzdf3-51" value="" style="endArrow=classic;startArrow=classic;html=1;rounded=0;" edge="1" parent="1">
          <mxGeometry width="50" height="50" relative="1" as="geometry">
            <mxPoint x="150" y="900" as="sourcePoint" />
            <mxPoint x="270" y="900" as="targetPoint" />
          </mxGeometry>
        </mxCell>
        <mxCell id="XVAqmGDR4TXaDETgzdf3-52" value="Vak" style="text;html=1;align=center;verticalAlign=middle;resizable=0;points=[];autosize=1;strokeColor=none;fillColor=none;" vertex="1" parent="1">
          <mxGeometry x="70" y="1155" width="40" height="30" as="geometry" />
        </mxCell>
        <mxCell id="XVAqmGDR4TXaDETgzdf3-53" value="StudentID" style="rounded=0;whiteSpace=wrap;html=1;" vertex="1" parent="1">
          <mxGeometry x="150" y="1013" width="120" height="60" as="geometry" />
        </mxCell>
        <mxCell id="XVAqmGDR4TXaDETgzdf3-54" value="" style="endArrow=classic;startArrow=classic;html=1;rounded=0;" edge="1" parent="1">
          <mxGeometry width="50" height="50" relative="1" as="geometry">
            <mxPoint x="150" y="1000" as="sourcePoint" />
            <mxPoint x="390" y="1000" as="targetPoint" />
          </mxGeometry>
        </mxCell>
        <mxCell id="XVAqmGDR4TXaDETgzdf3-55" value="" style="endArrow=classic;html=1;rounded=0;exitX=0.5;exitY=0;exitDx=0;exitDy=0;entryX=0.5;entryY=1;entryDx=0;entryDy=0;" edge="1" parent="1" source="XVAqmGDR4TXaDETgzdf3-53" target="XVAqmGDR4TXaDETgzdf3-44">
          <mxGeometry width="50" height="50" relative="1" as="geometry">
            <mxPoint x="500" y="970" as="sourcePoint" />
            <mxPoint x="550" y="920" as="targetPoint" />
          </mxGeometry>
        </mxCell>
        <mxCell id="XVAqmGDR4TXaDETgzdf3-56" value="Vak" style="rounded=0;whiteSpace=wrap;html=1;" vertex="1" parent="1">
          <mxGeometry x="270" y="1140" width="120" height="60" as="geometry" />
        </mxCell>
        <mxCell id="XVAqmGDR4TXaDETgzdf3-57" value="" style="endArrow=classic;startArrow=classic;html=1;rounded=0;" edge="1" parent="1">
          <mxGeometry width="50" height="50" relative="1" as="geometry">
            <mxPoint x="270" y="1130" as="sourcePoint" />
            <mxPoint x="390" y="1130" as="targetPoint" />
          </mxGeometry>
        </mxCell>
        <mxCell id="XVAqmGDR4TXaDETgzdf3-58" value="3NF" style="text;html=1;align=center;verticalAlign=middle;whiteSpace=wrap;rounded=0;" vertex="1" parent="1">
          <mxGeometry x="50" y="870" width="60" height="30" as="geometry" />
        </mxCell>
        <mxCell id="XVAqmGDR4TXaDETgzdf3-59" value="Student" style="text;html=1;align=center;verticalAlign=middle;resizable=0;points=[];autosize=1;strokeColor=none;fillColor=none;" vertex="1" parent="1">
          <mxGeometry x="60" y="920" width="60" height="30" as="geometry" />
        </mxCell>
        <mxCell id="XVAqmGDR4TXaDETgzdf3-60" value="VakInschrijving" style="text;html=1;align=center;verticalAlign=middle;resizable=0;points=[];autosize=1;strokeColor=none;fillColor=none;" vertex="1" parent="1">
          <mxGeometry x="40" y="1028" width="100" height="30" as="geometry" />
        </mxCell>
        <mxCell id="XVAqmGDR4TXaDETgzdf3-61" value="" style="endArrow=classic;html=1;rounded=0;exitX=0.5;exitY=1;exitDx=0;exitDy=0;entryX=0.5;entryY=0;entryDx=0;entryDy=0;" edge="1" parent="1" source="XVAqmGDR4TXaDETgzdf3-46" target="XVAqmGDR4TXaDETgzdf3-56">
          <mxGeometry width="50" height="50" relative="1" as="geometry">
            <mxPoint x="510" y="1080" as="sourcePoint" />
            <mxPoint x="560" y="1030" as="targetPoint" />
          </mxGeometry>
        </mxCell>
        <mxCell id="XVAqmGDR4TXaDETgzdf3-62" value="Docent" style="rounded=0;whiteSpace=wrap;html=1;" vertex="1" parent="1">
          <mxGeometry x="390" y="1270" width="120" height="60" as="geometry" />
        </mxCell>
        <mxCell id="XVAqmGDR4TXaDETgzdf3-63" value="" style="endArrow=classic;startArrow=classic;html=1;rounded=0;" edge="1" parent="1">
          <mxGeometry width="50" height="50" relative="1" as="geometry">
            <mxPoint x="390" y="1260" as="sourcePoint" />
            <mxPoint x="510" y="1260" as="targetPoint" />
          </mxGeometry>
        </mxCell>
        <mxCell id="XVAqmGDR4TXaDETgzdf3-64" value="" style="endArrow=classic;html=1;rounded=0;exitX=0.5;exitY=1;exitDx=0;exitDy=0;entryX=0.5;entryY=0;entryDx=0;entryDy=0;" edge="1" parent="1" source="XVAqmGDR4TXaDETgzdf3-47" target="XVAqmGDR4TXaDETgzdf3-62">
          <mxGeometry width="50" height="50" relative="1" as="geometry">
            <mxPoint x="250" y="1320" as="sourcePoint" />
            <mxPoint x="300" y="1270" as="targetPoint" />
          </mxGeometry>
        </mxCell>
        <mxCell id="XVAqmGDR4TXaDETgzdf3-65" value="Docent" style="text;html=1;align=center;verticalAlign=middle;resizable=0;points=[];autosize=1;strokeColor=none;fillColor=none;" vertex="1" parent="1">
          <mxGeometry x="60" y="1285" width="60" height="30" as="geometry" />
        </mxCell>
      </root>
    </mxGraphModel>
  </diagram>
</mxfile>
